<svg aria-hidden="true" style="position: absolute; width: 0; height: 0; overflow: hidden;" version="1.1" xmlns="http://www.w3.org/2000/svg" xmlns:xlink="http://www.w3.org/1999/xlink">
<defs>
<symbol id="house-icon" viewBox="0 0 32 32">
<path fill="#d31342" style="fill: var(--color1, #d31342)" d="M31.609 15.444c0.579-0.536 0.523-1.363-0.125-1.843l-14.305-10.579c-0.321-0.222-0.719-0.354-1.148-0.354-0.442 0-0.851 0.141-1.185 0.379l0.006-0.004-14.354 11.123c-0.638 0.491-0.667 1.318-0.069 1.841l0.36 0.32c0.595 0.523 1.56 0.587 2.153 0.136l1.072-0.811v11.889c0 0.728 0.702 1.32 1.563 1.32h5.594c0.864 0 1.563-0.592 1.563-1.32v-8.317h7.135v8.317c-0.011 0.728 0.605 1.318 1.467 1.318h5.93c0.862 0 1.56-0.59 1.56-1.32v-11.715l0.664 0.491c0.363 0.269 1.131 0.053 1.71-0.485l0.408-0.379z"></path>
</symbol>
</defs>
</svg>
